<svg width="186" height="234" viewBox="0 0 186 234" fill="none" xmlns="http://www.w3.org/2000/svg">
<g clip-path="url(#clip0_1361_2535)">
<path d="M155.581 163.978C163.186 160.008 167.373 160.995 171.103 167.328C172.35 166.751 173.541 165.986 174.844 165.642C180.077 164.267 185.655 168.282 185.755 173.75C185.934 182.734 186.245 191.741 185.678 200.692C184.564 218.25 171.76 230.805 156.071 233.467C139.815 236.229 124.049 228.354 115.954 213.181C113.627 208.822 111.89 204.152 110.008 199.571C109.474 198.274 108.75 198.107 107.536 198.24C101.891 198.85 96.235 199.394 90.5787 199.96C85.9579 200.425 81.3372 200.925 76.7164 201.368C73.0754 201.723 69.4234 201.989 65.7824 202.333C60.2709 202.854 54.7594 203.409 49.2479 203.941C44.5714 204.396 39.895 204.829 35.2297 205.295C30.7536 205.738 26.2887 206.237 21.8127 206.681C17.281 207.125 12.7605 207.535 8.22876 207.968C6.74788 208.112 5.26701 208.223 3.8084 208.445C1.48132 208.8 0.0895182 207.713 0.0338463 205.328C-0.0106913 203.354 0.0115775 201.379 0.0227119 199.405C0.0672494 165.842 0.134056 132.267 0.134056 98.7041C0.134056 67.9471 0.0783838 37.19 0.056115 6.43291C0.056115 5.15737 0.0338463 3.85965 0.267668 2.61739C0.590566 0.831637 1.70401 -0.0778764 3.50778 -0.00023504C6.81469 0.143956 10.1105 0.410155 13.4062 0.709629C18.9734 1.21984 24.5295 1.8077 30.0856 2.36228C35.6416 2.91686 41.1977 3.50472 46.7538 4.04821C51.4747 4.50296 56.2069 4.89117 60.9278 5.33484C65.3593 5.75632 69.7797 6.21107 74.2112 6.64365C78.8876 7.0984 83.564 7.54207 88.2405 7.98573C93.1173 8.45158 97.9831 8.91743 102.86 9.38328C107.381 9.81585 111.912 10.2262 116.444 10.6588C121.221 11.1136 125.986 11.5905 130.763 12.0453C135.339 12.4778 139.915 12.8882 144.491 13.3319C147.297 13.5981 150.092 13.8976 152.898 14.1638C153.933 14.2636 154.535 14.8293 154.679 15.8275C154.78 16.5596 154.835 17.3027 154.835 18.0347C154.858 65.0854 154.858 112.125 154.902 159.176C154.902 160.728 155.336 162.292 155.581 163.978ZM3.26282 205.261C38.1469 201.901 72.9307 198.54 107.959 195.168C107.124 193.671 106.378 192.362 105.644 191.042C104.074 188.258 102.381 185.529 100.956 182.668C99.5753 179.884 99.4862 176.889 101.012 174.149C103.038 170.489 108.127 169.291 112.413 171.321C115.787 172.918 118.426 175.447 120.864 178.198C121.131 178.497 121.41 178.775 121.866 179.263C121.866 178.409 121.866 177.865 121.866 177.322C121.866 163.701 121.844 150.069 121.866 136.449C121.866 131.158 127.935 126.411 133.101 127.565C137.699 128.585 140.839 132.456 140.873 137.248C140.917 144.113 140.917 150.968 140.94 157.834C140.94 158.355 140.94 158.865 140.94 159.608C144.358 157.19 147.743 156.392 151.584 158.388C151.584 157.656 151.584 157.135 151.584 156.613C151.584 132.922 151.584 109.23 151.617 85.5273C151.64 63.4106 151.684 41.2939 151.718 19.1883C151.718 16.981 151.718 17.0365 149.491 16.8479C146.139 16.5707 142.799 16.2046 139.448 15.8719C132.856 15.2175 126.264 14.5409 119.662 13.9198C113.85 13.3652 108.026 12.9104 102.214 12.3558C95.5224 11.7236 88.8306 11.0248 82.1277 10.3815C73.5097 9.54965 64.8917 8.77324 56.2737 7.93028C48.6466 7.18714 41.0195 6.38854 33.3925 5.63431C25.3646 4.8468 17.3478 4.07039 9.31993 3.30507C7.32687 3.11651 5.33382 3.02778 3.24055 2.88359V205.261H3.26282ZM124.839 165.287C124.839 174.615 124.839 183.954 124.839 193.282C124.839 193.682 124.862 194.07 124.839 194.469C124.772 195.434 124.205 195.856 123.269 195.856C122.267 195.856 122.044 195.223 122.033 194.392C122 192.462 121.811 190.532 121.955 188.624C122.156 186.006 121.343 183.866 119.762 181.836C117.179 178.519 114.328 175.536 110.32 173.994C108.171 173.162 106.033 173.229 104.263 175.003C102.537 176.734 102.749 178.775 103.55 180.771C104.129 182.224 104.987 183.566 105.721 184.953C108.138 189.511 110.676 194.003 112.925 198.64C115.175 203.276 116.789 208.234 119.261 212.737C126.899 226.668 142.944 233.689 158.031 229.863C173.485 225.947 182.616 212.704 182.827 198.24C182.905 193.16 182.838 188.069 182.838 182.989C182.838 180.028 182.938 177.066 182.816 174.116C182.682 170.833 180.01 168.47 176.737 168.57C173.63 168.659 171.548 170.988 171.548 174.36C171.548 177.377 171.548 180.383 171.515 183.4C171.515 184.032 171.492 184.753 171.192 185.252C170.958 185.651 170.268 185.995 169.8 185.984C169.432 185.984 168.965 185.43 168.753 185.019C168.564 184.664 168.642 184.154 168.642 183.71C168.609 179.362 168.631 175.026 168.542 170.678C168.486 167.982 167.005 166.097 164.611 165.11C162.295 164.156 160.046 164.533 158.153 166.308C156.94 167.45 156.361 168.859 156.361 170.522C156.372 174.271 156.361 178.031 156.361 181.78C156.361 182.934 156.249 184.209 154.835 184.187C153.421 184.165 153.343 182.867 153.388 181.725C153.41 181.181 153.388 180.638 153.388 180.094C153.388 175.902 153.421 171.698 153.377 167.505C153.332 163.368 150.537 160.318 146.863 160.329C143.378 160.329 141.051 163.213 141.062 167.461C141.073 171.654 141.095 175.857 141.073 180.05C141.073 181.093 140.828 182.169 139.514 182.135C138.234 182.102 138.223 181.048 138.212 180.061C138.145 167.672 138.078 155.283 137.967 142.893C137.944 140.586 137.933 138.246 137.599 135.972C137.087 132.478 134.226 130.326 130.763 130.659C127.712 130.947 124.739 134.22 124.784 137.159C124.928 146.542 124.839 155.915 124.839 165.298V165.287Z" fill="#EDE7DE"/>
<path d="M53.1556 164.189C39.1263 164.123 29.4282 153.175 29.1053 141.008C28.7156 126.622 39.6607 116.029 53.6344 115.93C65.704 115.841 76.6046 124.87 76.9052 139.344C77.2059 153.453 66.8732 164.09 53.1556 164.189ZM74.0994 140.154C74.3666 127.898 64.9135 119.579 55.4827 119.124C40.2731 118.392 32.2229 129.273 32.2118 139.455C32.2007 151.745 41.1193 161.095 53.0108 161.161C65.203 161.228 74.4891 150.802 74.0882 140.154H74.0994Z" fill="#EDE7DE"/>
<path d="M68.0757 58.0647C68.3874 71.4412 57.0638 82.1779 43.2237 82.1446C31.1874 82.1113 19.14 72.3951 19.3182 57.7208C19.4852 44.0892 30.653 33.7851 44.1924 34.018C58.4222 34.2731 68.2427 45.1429 68.0757 58.0647ZM43.079 79.1277C56.7854 79.283 65.5704 68.0804 65.4034 57.8872C65.2253 46.7734 55.6052 36.9462 44.6155 37.035C29.5952 37.1459 22.2688 47.8382 22.2799 57.9094C22.2799 70.0436 32.7685 79.6046 43.0901 79.1277H43.079Z" fill="#EDE7DE"/>
<path d="M116.332 118.226C102.548 118.181 91.7696 107.677 91.7919 94.3121C91.8142 80.7026 102.47 70.0769 116.299 70.2654C128.212 70.4318 139.915 79.6822 139.636 94.4895C139.358 109.119 128.09 118.492 116.332 118.226ZM116.644 115.286C127.277 115.164 136.307 106.779 136.641 94.2233C136.986 81.3127 126.999 73.5042 116.633 73.3045C103.85 73.0605 94.7202 82.4662 94.6534 93.6022C94.5755 106.358 104.151 114.898 116.644 115.286Z" fill="#EDE7DE"/>
<path d="M123 95H117V101H115V95H109V93H115V87H117V93H123V95Z" fill="#F7F3ED"/>
<path d="M51 59H45V65H43V59H37V57H43V51H45V57H51V59Z" fill="#F7F3ED"/>
<path d="M60 141H54V147H52V141H46V139H52V133H54V139H60V141Z" fill="#F7F3ED"/>
</g>
<defs>
<clipPath id="clip0_1361_2535">
<rect width="186" height="234" fill="white"/>
</clipPath>
</defs>
</svg>
